# xmcd
# 
# Track frame offsets:
#     150
#     20858
#     34725
#     51548
#     68650
#     88803
#     100218
#     119418
#     136950
#     153725
# 
# Disc length: 2395
# 
# Revision: 1
# Processed by: cddbd v1.5.2PL0 Copyright (c) Steve Scherf et al.
# Submitted via: fre:ac v1.0.31
# 
DISCID=9009590a
DTITLE=Jen Chapin and Stephan Crump - Open Wide
DYEAR=2002
DGENRE=Jazz
TTITLE0=Hurry Up Sky
TTITLE1=Open Wide
TTITLE2=Way
TTITLE3=Portrait
TTITLE4=Gold
TTITLE5=Don't Miss You
TTITLE6=Passive People
TTITLE7=I'll Take You With Me
TTITLE8=NYC
TTITLE9=Slow Tide
EXTD=
EXTT0=
EXTT1=
EXTT2=
EXTT3=
EXTT4=
EXTT5=
EXTT6=
EXTT7=
EXTT8=
EXTT9=
PLAYORDER=
